<svg xmlns="http://www.w3.org/2000/svg" viewBox="0 0 320 64" fill="none">
  
  <g transform="translate(0,4)">
    <rect x="2" y="30" width="8" height="18" rx="2" fill="#F97316"></rect>
    <path d="M6 30 C6 30 0 22 4 14 C4 14 6 20 10 18 C10 18 8 10 14 6 C14 6 12 16 16 18 C16 18 20 12 18 6 C18 6 24 14 20 22 C20 22 18 18 16 20 C16 20 18 28 14 30 Z" fill="#F97316"></path>
    <path d="M8 26 C8 26 6 20 10 16 C10 16 10 22 12 22 C12 22 12 28 8 26 Z" fill="#FBBF24"></path>
  </g>
  
  <text x="56" y="28" font-family="Outfit, sans-serif" font-size="18" font-weight="800" fill="#F1F5F9" letter-spacing="-0.5">MAYUR NOBLES</text>
  <text x="56" y="48" font-family="Outfit, sans-serif" font-size="11" font-weight="500" fill="#94A3B8" letter-spacing="2">ACADEMY • BARMER</text>
  
  <rect x="56" y="52" width="48" height="2" rx="1" fill="#F97316"></rect>
</svg>